<svg height="512pt" viewBox="-14 0 512 512" width="512pt" xmlns="http://www.w3.org/2000/svg"><path d="m137.214844 408.972656s-40.085938 32.628906-40.085938 103.027344h289.105469c0-70.398438-40.085937-103.027344-40.085937-103.027344zm0 0" fill="#c7c5cb"/><path d="m168.121094 408.972656h-30.90625s-40.085938 32.632813-40.085938 103.027344h30.90625c-.003906-70.394531 40.085938-103.027344 40.085938-103.027344zm0 0" fill="#b2b0bc"/><path d="m84.824219 199.269531c0 23.421875-18.988281 42.410157-42.410157 42.410157-23.425781 0-42.414062-18.988282-42.414062-42.410157 0-23.425781 18.988281-42.414062 42.414062-42.414062 23.421876 0 42.410157 18.988281 42.410157 42.414062zm0 0" fill="#fed2a4"/><path d="m483.363281 199.269531c0 23.421875-18.988281 42.410157-42.414062 42.410157-23.421875 0-42.410157-18.988282-42.410157-42.410157 0-23.425781 18.988282-42.414062 42.410157-42.414062 23.425781 0 42.414062 18.988281 42.414062 42.414062zm0 0" fill="#fed2a4"/><path d="m398.539062 199.269531c0 23.421875 18.988282 42.410157 42.410157 42.410157 6.5 0 12.65625-1.464844 18.164062-4.078126 1.613281-12.632812 2.441407-25.425781 2.441407-38.332031 0-13.097656-1.171876-26.070312-3.445313-38.785156-5.246094-2.328125-11.050781-3.628906-17.160156-3.628906-23.421875 0-42.410157 18.988281-42.410157 42.414062zm0 0" fill="#ffbd86"/><path d="m42.414062 156.855469c-6.109374 0-11.914062 1.304687-17.160156 3.628906-2.273437 12.714844-3.445312 25.691406-3.445312 38.785156 0 12.90625.828125 25.703125 2.441406 38.332031 5.507812 2.613282 11.664062 4.082032 18.164062 4.082032 23.421876 0 42.410157-18.992188 42.410157-42.414063 0-23.425781-18.988281-42.414062-42.410157-42.414062zm0 0" fill="#ffbd86"/><path d="m390.785156 67.058594-149.105468-36.304688-149.101563 36.304688c-31.21875 35.175781-50.164063 81.484375-50.164063 132.210937 0 127.1875 84.894532 224.660157 170.933594 255.726563 18.285156 6.601562 38.382813 6.601562 56.664063 0 86.042969-31.066406 170.9375-128.539063 170.9375-255.726563 0-50.726562-18.945313-97.035156-50.164063-132.210937zm0 0" fill="#4f4c5f"/><path d="m244.253906 454.996094c-86.039062-31.066406-170.9375-128.539063-170.9375-255.726563 0-50.726562 18.949219-97.035156 50.164063-132.210937l133.652343-32.542969-15.453124-3.761719-149.101563 36.304688c-31.21875 35.175781-50.164063 81.484375-50.164063 132.210937 0 127.183594 84.894532 224.660157 170.933594 255.726563 14.074219 5.082031 29.21875 6.234375 43.785156 3.496094-4.355468-.820313-8.667968-1.976563-12.878906-3.496094zm0 0" fill="#423e4f"/><path d="m241.679688 281.5c54.335937 0 71.253906 23.066406 96.371093 23.066406 25.117188 0 72.148438-12.300781 72.148438-105.296875 0-92.917969-75.597657-168.515625-168.519531-168.515625-92.917969 0-168.515626 75.597656-168.515626 168.515625 0 92.996094 47.03125 105.296875 72.148438 105.296875s42.03125-23.066406 96.367188-23.066406zm0 0" fill="#fed2a4"/><path d="m390.785156 67.058594h-298.207031c36.503906-41.132813 89.773437-67.058594 149.101563-67.058594 59.328124 0 112.597656 25.925781 149.105468 67.058594zm0 0" fill="#e8e8e8"/><path d="m257.132812.601562c-5.097656-.390624-10.25-.601562-15.453124-.601562-59.328126 0-112.597657 25.925781-149.101563 67.058594h30.902344c33.308593-37.523438 80.570312-62.382813 133.652343-66.457032zm0 0" fill="#c7c5cb"/><path d="m333.511719 200.855469c-4.269531 0-7.726563-3.457031-7.726563-7.726563v-17.855468c0-4.265626 3.457032-7.726563 7.726563-7.726563s7.726562 3.460937 7.726562 7.726563v17.855468c0 4.269532-3.457031 7.726563-7.726562 7.726563zm0 0" fill="#423e4f"/><path d="m345.671875 227.101562h-24.320313c-4.265624 0-7.726562-3.460937-7.726562-7.726562s3.460938-7.726562 7.726562-7.726562h24.320313c4.269531 0 7.726563 3.460937 7.726563 7.726562s-3.460938 7.726562-7.726563 7.726562zm0 0" fill="#ff8997"/><path d="m149.851562 200.855469c-4.265624 0-7.726562-3.457031-7.726562-7.726563v-17.855468c0-4.265626 3.460938-7.726563 7.726562-7.726563 4.269532 0 7.726563 3.460937 7.726563 7.726563v17.855468c0 4.269532-3.457031 7.726563-7.726563 7.726563zm0 0" fill="#423e4f"/><path d="m162.011719 227.101562h-24.320313c-4.265625 0-7.726562-3.460937-7.726562-7.726562s3.460937-7.726562 7.726562-7.726562h24.320313c4.265625 0 7.726562 3.460937 7.726562 7.726562s-3.460937 7.726562-7.726562 7.726562zm0 0" fill="#ff8997"/><path d="m241.679688 226.09375c-8.628907 0-16.734376-3.613281-22.238282-9.910156-2.8125-3.210938-2.480468-8.09375.730469-10.902344s8.09375-2.480469 10.902344.734375c2.570312 2.9375 6.433593 4.625 10.605469 4.625 4.175781 0 8.039062-1.6875 10.609374-4.625 2.808594-3.214844 7.691407-3.542969 10.902344-.734375 3.210938 2.808594 3.539063 7.691406.730469 10.902344-5.503906 6.296875-13.609375 9.910156-22.242187 9.910156zm0 0" fill="#423e4f"/></svg>